<?xml version="1.0" encoding="UTF-8"?> <svg xmlns="http://www.w3.org/2000/svg" xmlns:xlink="http://www.w3.org/1999/xlink" width="111" height="111" viewBox="0 0 111 111"><defs><clipPath id="clip-path"><rect id="Прямоугольник_793" data-name="Прямоугольник 793" width="44.978" height="63.346" transform="translate(0 0)" fill="#988165"></rect></clipPath></defs><g id="Сгруппировать_478" data-name="Сгруппировать 478" transform="translate(-904 -2669)"><circle id="Эллипс_70" data-name="Эллипс 70" cx="55.5" cy="55.5" r="55.5" transform="translate(904 2669)" fill="#382b2b"></circle><g id="Сгруппировать_267" data-name="Сгруппировать 267" transform="translate(937 2692.826)"><g id="Сгруппировать_266" data-name="Сгруппировать 266" transform="translate(0 0.001)" clip-path="url(#clip-path)"><path id="Контур_551" data-name="Контур 551" d="M150.93,524a.81.81,0,0,1-.809-.809V519.76a.809.809,0,0,1,1.619,0v3.432a.81.81,0,0,1-.809.809" transform="translate(-137.474 -475.232)" fill="#988165"></path><path id="Контур_552" data-name="Контур 552" d="M365.362,524a.809.809,0,0,1-.809-.809V519.76a.809.809,0,0,1,1.619,0v3.432a.81.81,0,0,1-.809.809" transform="translate(-333.841 -475.232)" fill="#988165"></path><path id="Контур_553" data-name="Контур 553" d="M37.73,574.9H7.247A7.255,7.255,0,0,1,0,567.651v-6.326a.809.809,0,0,1,.689-.8l12.647-1.9a.8.8,0,0,1,.7.231l8.457,8.542,8.457-8.542a.8.8,0,0,1,.7-.231l12.647,1.9a.809.809,0,0,1,.689.8v6.326A7.256,7.256,0,0,1,37.73,574.9M1.619,562.021v5.63a5.635,5.635,0,0,0,5.629,5.628H37.73a5.635,5.635,0,0,0,5.629-5.628v-5.63l-11.552-1.739-8.743,8.831a.809.809,0,0,1-1.151,0l-8.743-8.831Z" transform="translate(0 -511.551)" fill="#988165"></path><path id="Контур_554" data-name="Контур 554" d="M61.415,258.839a.811.811,0,0,1-.248-.039c-1.513-.487-1.925-2.559-2.114-4.311a30.017,30.017,0,0,0-.516-3c-.352-1.682-.607-2.9-.015-3.777a1.988,1.988,0,0,1,1.359-.823,2.165,2.165,0,0,1,1.9.689.809.809,0,0,1-1.105,1.182c-.261-.244-.433-.291-.5-.279a.538.538,0,0,0-.306.133,5.9,5.9,0,0,0,.256,2.543,31.393,31.393,0,0,1,.541,3.162c.266,2.452.788,2.875,1,2.943a.81.81,0,0,1-.248,1.58" transform="translate(-53.268 -226.061)" fill="#988165"></path><path id="Контур_555" data-name="Контур 555" d="M429.759,258.785a.809.809,0,0,1-.328-1.55c.2-.09.707-.556.964-2.93a31.307,31.307,0,0,1,.541-3.162,5.9,5.9,0,0,0,.255-2.543.538.538,0,0,0-.307-.133c-.085-.018-.27.065-.5.279a.809.809,0,1,1-1.106-1.182,2.159,2.159,0,0,1,1.9-.689,1.989,1.989,0,0,1,1.36.823c.592.881.337,2.1-.015,3.777a29.994,29.994,0,0,0-.516,3c-.266,2.461-.857,3.768-1.919,4.237a.808.808,0,0,1-.327.069" transform="translate(-392.811 -226.052)" fill="#988165"></path><path id="Контур_556" data-name="Контур 556" d="M88.512,256.076a.809.809,0,0,1-.8-.7,43.17,43.17,0,0,1-.425-5.934,12.921,12.921,0,0,1,.142-1.913.809.809,0,1,1,1.6.24,11.276,11.276,0,0,0-.124,1.673,41.527,41.527,0,0,0,.409,5.709.81.81,0,0,1-.689.914.825.825,0,0,1-.114.008" transform="translate(-79.933 -226.047)" fill="#988165"></path><path id="Контур_557" data-name="Контур 557" d="M422.713,256.379a.779.779,0,0,1-.12-.009.809.809,0,0,1-.681-.92,41.454,41.454,0,0,0,.453-6.01,11.32,11.32,0,0,0-.124-1.674.809.809,0,1,1,1.6-.24,12.95,12.95,0,0,1,.142,1.914,43.094,43.094,0,0,1-.471,6.248.809.809,0,0,1-.8.69" transform="translate(-386.359 -226.043)" fill="#988165"></path><path id="Контур_558" data-name="Контур 558" d="M73,22.659a.809.809,0,0,1-.807-.75L70.831,3.279a.81.81,0,0,1,.385-.749C71.385,2.426,75.482,0,87.351,0s15.967,2.425,16.135,2.528a.81.81,0,0,1,.385.749l-1.365,18.63a.81.81,0,0,1-1.3.58c-.053-.04-3.358-2.436-13.85-2.436s-13.812,2.407-13.843,2.431a.811.811,0,0,1-.5.176m14.347-4.226c7.757,0,11.817,1.275,13.632,2.1L102.216,3.7C100.935,3.141,96.61,1.62,87.351,1.62S73.773,3.139,72.486,3.7l1.233,16.829c1.815-.825,5.875-2.1,13.632-2.1" transform="translate(-64.862 -0.001)" fill="#988165"></path><path id="Контур_559" data-name="Контур 559" d="M103.455,352.14c-.324-.01-6.344-.334-12.562-5.791-2.912-2.556-2.525-12.181-2.471-13.27a.81.81,0,0,1,.677-.759,98.474,98.474,0,0,1,14.32-.942,98.482,98.482,0,0,1,14.321.942.81.81,0,0,1,.677.759c.054,1.089.441,10.714-2.471,13.27-6.218,5.457-12.238,5.781-12.492,5.791M90.013,333.822c-.117,3.873.293,9.857,1.948,11.31,5.766,5.06,11.439,5.387,11.5,5.39a20.983,20.983,0,0,0,11.422-5.39c1.655-1.453,2.065-7.437,1.948-11.31a109.248,109.248,0,0,0-26.814,0" transform="translate(-80.931 -303.461)" fill="#988165"></path><path id="Контур_560" data-name="Контур 560" d="M144.569,355.578a.809.809,0,0,1-.527-1.424,23.594,23.594,0,0,1,6.989-4,.809.809,0,1,1,.525,1.531,22.17,22.17,0,0,0-6.46,3.7.806.806,0,0,1-.526.195" transform="translate(-131.648 -320.611)" fill="#988165"></path><path id="Контур_561" data-name="Контур 561" d="M138.3,479.292a.834.834,0,0,1-.152-.014,25.67,25.67,0,0,1-8.814-3.675.81.81,0,0,1,.905-1.343,24.246,24.246,0,0,0,8.21,3.426.81.81,0,0,1-.15,1.605" transform="translate(-118.108 -434.18)" fill="#988165"></path><path id="Контур_562" data-name="Контур 562" d="M296.634,355.578a.807.807,0,0,1-.526-.195,22.165,22.165,0,0,0-6.46-3.7.809.809,0,1,1,.525-1.531,23.6,23.6,0,0,1,6.989,4,.809.809,0,0,1-.527,1.424" transform="translate(-264.744 -320.611)" fill="#988165"></path><path id="Контур_563" data-name="Контур 563" d="M283.485,479.292a.81.81,0,0,1-.15-1.605,24.272,24.272,0,0,0,8.21-3.426.81.81,0,0,1,.905,1.343,25.678,25.678,0,0,1-8.814,3.675.834.834,0,0,1-.152.014" transform="translate(-258.863 -434.18)" fill="#988165"></path></g></g></g></svg> 