<?xml version="1.0" encoding="UTF-8"?> <svg xmlns="http://www.w3.org/2000/svg" xmlns:xlink="http://www.w3.org/1999/xlink" width="111" height="111" viewBox="0 0 111 111"><defs><clipPath id="clip-path"><rect id="Прямоугольник_981" data-name="Прямоугольник 981" width="53.034" height="53.052" transform="translate(0 0)" fill="#988165"></rect></clipPath></defs><g id="Сгруппировать_481" data-name="Сгруппировать 481" transform="translate(-904 -2948)"><circle id="Эллипс_67" data-name="Эллипс 67" cx="55.5" cy="55.5" r="55.5" transform="translate(904 2948)" fill="#382b2b"></circle><g id="Сгруппировать_461" data-name="Сгруппировать 461" transform="translate(933 2975.364)"><g id="Сгруппировать_460" data-name="Сгруппировать 460" clip-path="url(#clip-path)"><path id="Контур_863" data-name="Контур 863" d="M19.665,31.913A.678.678,0,0,1,19.6,30.56l12.646-1.288a1.508,1.508,0,0,0-1.414-.681L17.747,29.923a.678.678,0,1,1-.137-1.349l13.081-1.332a2.858,2.858,0,0,1,3.131,2.551.679.679,0,0,1-.606.744L19.735,31.91l-.07,0" fill="#988165"></path><path id="Контур_864" data-name="Контур 864" d="M17.828,36.96a.673.673,0,0,1-.479-.2L6.66,26.072a.677.677,0,0,1,.958-.958L18.307,35.8a.678.678,0,0,1-.479,1.157" fill="#988165"></path><path id="Контур_865" data-name="Контур 865" d="M20.468,36.96a.678.678,0,0,1-.479-1.157l.8-.8a1.192,1.192,0,0,0,0-1.682l-7.649-7.648a4.206,4.206,0,0,0-5.016-.691A.678.678,0,1,1,7.459,23.8a5.563,5.563,0,0,1,6.641.913l7.649,7.648a2.547,2.547,0,0,1,0,3.6l-.8.8a.673.673,0,0,1-.479.2" fill="#988165"></path><path id="Контур_866" data-name="Контур 866" d="M22.425,40.732a2.671,2.671,0,0,1-2.649-2.4,3.559,3.559,0,0,1,3.176-3.9l11.057-1.126A4.235,4.235,0,0,1,38.655,37.1l.032.314a1.666,1.666,0,0,1-1.492,1.828L22.7,40.717a2.584,2.584,0,0,1-.277.015m12.019-6.087c-.1,0-.2.005-.3.015L23.09,35.786a2.2,2.2,0,0,0-1.965,2.409,1.31,1.31,0,0,0,1.438,1.173l14.495-1.476a.312.312,0,0,0,.28-.342l-.032-.315a2.881,2.881,0,0,0-2.862-2.59" fill="#988165"></path><path id="Контур_867" data-name="Контур 867" d="M52.211,43.557a.675.675,0,0,1-.2-.031l-13.68-4.285a1.382,1.382,0,0,1-.972-1.323l-.177-2.091a.526.526,0,0,1,0-.056,1.385,1.385,0,0,1,1.889-1.291L51.04,39.069A3.207,3.207,0,0,1,52.85,43.1a.679.679,0,0,1-.639.452M38.534,35.746l.177,2.115L51.678,42a1.849,1.849,0,0,0-1.14-1.669L38.577,35.744Z" fill="#988165"></path><path id="Контур_868" data-name="Контур 868" d="M4.85,24.057a.679.679,0,0,1-.384-.119,2.4,2.4,0,0,1-.68-.714L.219,17.483a1.461,1.461,0,0,1,.469-2.008,4.155,4.155,0,0,1,5.723,1.337l2.143,3.449a2.271,2.271,0,0,1,.269,1.759A2.771,2.771,0,0,1,7.48,23.729.678.678,0,1,1,6.8,22.557a1.438,1.438,0,0,0,.709-.864.911.911,0,0,0-.107-.716l-2.143-3.45a2.8,2.8,0,0,0-3.854-.9.1.1,0,0,0-.033.141l3.567,5.74a1.041,1.041,0,0,0,.3.312.678.678,0,0,1-.385,1.237" fill="#988165"></path><path id="Контур_869" data-name="Контур 869" d="M6.2,26.525A2.03,2.03,0,1,1,8.23,24.5a2.032,2.032,0,0,1-2.03,2.03m0-2.7a.674.674,0,1,0,.674.674.675.675,0,0,0-.674-.674" fill="#988165"></path><path id="Контур_870" data-name="Контур 870" d="M20.478,39.236H18.906a1.739,1.739,0,1,1,0-3.478h1.572a.679.679,0,0,1,.678.678v2.123a.678.678,0,0,1-.678.677m-1.572-2.122a.383.383,0,0,0,0,.766H19.8v-.766Z" fill="#988165"></path><path id="Контур_871" data-name="Контур 871" d="M24.189,46.141a.678.678,0,0,1-.639-.451l-1.912-5.384a.678.678,0,0,1,.57-.9l12.357-1.258a.67.67,0,0,1,.711.459l1.454,4.334a.678.678,0,0,1-1.286.431l-1.281-3.82L23.2,40.666l1.623,4.57a.678.678,0,0,1-.412.866.669.669,0,0,1-.227.039" fill="#988165"></path><path id="Контур_872" data-name="Контур 872" d="M48.031,53.052H13.2a.678.678,0,0,1-.678-.678c0-2.677,12.8-9.736,23.037-9.736,10.382,0,13.151,6.12,13.151,9.736a.677.677,0,0,1-.678.678M14.4,51.7H47.3c-.276-2.007-1.924-7.7-11.74-7.7-8.958,0-18.776,5.418-21.153,7.7" fill="#988165"></path><path id="Контур_873" data-name="Контур 873" d="M39.969,5.1a.673.673,0,0,1-.465-.185C35.727,1.362,31.131.533,29.547,2.168a.678.678,0,0,1-.974-.944C30.9-1.173,36.33.066,40.434,3.932A.678.678,0,0,1,39.969,5.1" fill="#988165"></path><path id="Контур_874" data-name="Контур 874" d="M43.06,17.436a.678.678,0,0,1-.473-1.164c2.036-1.984,1.294-6.242-1.726-9.9a.678.678,0,1,1,1.046-.863c3.53,4.28,4.214,9.216,1.626,11.738a.677.677,0,0,1-.473.192" fill="#988165"></path><path id="Контур_875" data-name="Контур 875" d="M42.033,19.693l-.947-.971,1.3-1.269c.523-.51.384-1.86-.364-3.522a22.922,22.922,0,0,0-4.455-6.2C33.444,3.5,29.1,1.569,27.979,2.666l-1.3,1.269-.947-.971,1.3-1.27c2.179-2.125,7.556,1.04,11.509,5.1a24.268,24.268,0,0,1,4.72,6.585c1.033,2.3,1.06,4.09.074,5.05Z" fill="#988165"></path><path id="Контур_876" data-name="Контур 876" d="M40.185,20.356c-2.623,0-6.564-2.618-9.641-5.776-3.952-4.054-6.976-9.51-4.8-11.636.985-.961,2.778-.887,5.046.2a24.285,24.285,0,0,1,6.461,4.891c3.952,4.055,6.975,9.511,4.795,11.635a2.574,2.574,0,0,1-1.866.682M27.619,3.627a1.29,1.29,0,0,0-.924.289c-1.126,1.1.7,5.487,4.82,9.718S39.981,19.8,41.1,18.7s-.7-5.486-4.82-9.718A22.914,22.914,0,0,0,30.206,4.37a6.425,6.425,0,0,0-2.587-.743" fill="#988165"></path><path id="Контур_877" data-name="Контур 877" d="M31.11,9.59A4.585,4.585,0,0,1,28.343,8a6.515,6.515,0,0,1-1.271-1.78c-.473-1.052-.146-1.6.091-1.827a1.138,1.138,0,0,1,.821-.313H28a4.733,4.733,0,0,1,2.736,1.586c1.183,1.214,2.008,2.8,1.181,3.607a1.119,1.119,0,0,1-.81.314M28.24,5.5a4.79,4.79,0,0,0,1.074,1.557,4.814,4.814,0,0,0,1.529,1.115,4.791,4.791,0,0,0-1.075-1.557A4.8,4.8,0,0,0,28.24,5.5" fill="#988165"></path><path id="Контур_878" data-name="Контур 878" d="M39.828,18.536a4.584,4.584,0,0,1-2.766-1.586c-1.184-1.215-2.008-2.8-1.181-3.608s2.392.058,3.576,1.274A6.523,6.523,0,0,1,40.729,16.4c.473,1.053.146,1.6-.091,1.828a1.118,1.118,0,0,1-.81.313m-2.87-4.089A4.779,4.779,0,0,0,38.033,16a4.786,4.786,0,0,0,1.528,1.115,4.79,4.79,0,0,0-1.075-1.556,4.8,4.8,0,0,0-1.528-1.115" fill="#988165"></path><path id="Контур_879" data-name="Контур 879" d="M34.118,15.38a4.586,4.586,0,0,1-2.766-1.587,6.524,6.524,0,0,1-1.272-1.781c-.473-1.052-.146-1.6.092-1.827.827-.809,2.392.059,3.575,1.273a6.5,6.5,0,0,1,1.271,1.781c.474,1.052.147,1.6-.09,1.827a1.119,1.119,0,0,1-.81.314m-2.87-4.09a4.791,4.791,0,0,0,1.075,1.557,4.805,4.805,0,0,0,1.528,1.114A4.791,4.791,0,0,0,32.776,12.4a4.789,4.789,0,0,0-1.528-1.114" fill="#988165"></path><path id="Контур_880" data-name="Контур 880" d="M36.819,12.748a4.586,4.586,0,0,1-2.766-1.587A6.509,6.509,0,0,1,32.781,9.38c-.473-1.052-.146-1.6.091-1.827.829-.808,2.393.059,3.576,1.273a6.509,6.509,0,0,1,1.272,1.781c.473,1.052.146,1.6-.091,1.827a1.119,1.119,0,0,1-.81.314m-2.87-4.09a4.791,4.791,0,0,0,1.075,1.557,4.789,4.789,0,0,0,1.528,1.114,4.791,4.791,0,0,0-1.075-1.557,4.778,4.778,0,0,0-1.528-1.114" fill="#988165"></path><path id="Контур_881" data-name="Контур 881" d="M38.922,8.788a.678.678,0,0,1-.473-1.164L42.1,4.067a.219.219,0,0,0,.069-.159.227.227,0,0,0-.384-.165L38.168,7.266a.678.678,0,1,1-.947-.971l3.615-3.523a1.582,1.582,0,1,1,2.209,2.266L39.4,8.6a.677.677,0,0,1-.473.192" fill="#988165"></path></g></g></g></svg> 