<?xml version="1.0" encoding="UTF-8"?> <svg xmlns="http://www.w3.org/2000/svg" xmlns:xlink="http://www.w3.org/1999/xlink" width="111" height="111" viewBox="0 0 111 111"><defs><clipPath id="clip-path"><rect id="Прямоугольник_982" data-name="Прямоугольник 982" width="49.047" height="53.052" fill="#988165"></rect></clipPath></defs><g id="Сгруппировать_482" data-name="Сгруппировать 482" transform="translate(-1384.086 -2948)"><circle id="Эллипс_69" data-name="Эллипс 69" cx="55.5" cy="55.5" r="55.5" transform="translate(1384.086 2948)" fill="#382b2b"></circle><g id="Сгруппировать_463" data-name="Сгруппировать 463" transform="translate(1415.086 2975.365)"><g id="Сгруппировать_462" data-name="Сгруппировать 462" clip-path="url(#clip-path)"><path id="Контур_882" data-name="Контур 882" d="M130.3,61.4a.728.728,0,0,1-.633-.368l-3.2-5.621a.728.728,0,0,1,.234-.969,3.321,3.321,0,0,0,1.479-2.562.728.728,0,0,1,.722-.688l6.466-.041h0a.728.728,0,0,1,.727.768,12.1,12.1,0,0,1-5.405,9.362.728.728,0,0,1-.4.118m-2.252-6.159,2.487,4.373a10.677,10.677,0,0,0,4.042-7l-5.03.032a4.794,4.794,0,0,1-1.5,2.6" transform="translate(-89.584 -36.263)" fill="#988165"></path><path id="Контур_883" data-name="Контур 883" d="M81.516,61.4a.726.726,0,0,1-.4-.119,12.1,12.1,0,0,1-5.406-9.361.728.728,0,0,1,.727-.769h0l4.138.023a.728.728,0,0,1,0,1.456h0l-3.335-.018a10.681,10.681,0,0,0,4.042,7l2.487-4.372a4.809,4.809,0,0,1-.958-1.178,4.747,4.747,0,0,1-.631-2.1.728.728,0,1,1,1.453-.079,3.319,3.319,0,0,0,1.48,2.562.728.728,0,0,1,.234.969l-3.2,5.621a.728.728,0,0,1-.633.368" transform="translate(-53.67 -36.263)" fill="#988165"></path><path id="Контур_884" data-name="Контур 884" d="M105.427,16.994a.727.727,0,0,1-.328-.078,3.38,3.38,0,0,0-2.958,0,.728.728,0,0,1-.956-.282l-3.27-5.58a.728.728,0,0,1,.3-1.017,12.1,12.1,0,0,1,10.811,0,.727.727,0,0,1,.3,1.017l-3.269,5.579a.728.728,0,0,1-.629.36m-5.849-5.981,2.543,4.34a4.861,4.861,0,0,1,3,0l2.543-4.34a10.844,10.844,0,0,0-8.085,0" transform="translate(-69.339 -6.212)" fill="#988165"></path><path id="Контур_885" data-name="Контур 885" d="M108.989,45.028a3.6,3.6,0,1,1,3.6-3.6,3.6,3.6,0,0,1-3.6,3.6m0-5.744a2.144,2.144,0,1,0,2.145,2.144,2.146,2.146,0,0,0-2.145-2.144" transform="translate(-74.708 -26.815)" fill="#988165"></path><path id="Контур_886" data-name="Контур 886" d="M81.8,29.53A14.766,14.766,0,1,1,96.11,11.107a.728.728,0,0,1-1.41.36,13.32,13.32,0,1,0,.409,3.585c0-.093,0-.19,0-.287a.728.728,0,1,1,1.456,0c0,.105,0,.21,0,.314A14.766,14.766,0,0,1,81.8,29.53" transform="translate(-47.519 0.001)" fill="#988165"></path><path id="Контур_887" data-name="Контур 887" d="M33.606,66.558a.73.73,0,0,1-.261-.049c-6.991-2.694-5.728-12.033-5.59-12.926a5.431,5.431,0,0,1,5.425-5.365.727.727,0,0,1,.256.047,18.77,18.77,0,0,0,5.928.808.728.728,0,1,1,0,1.456,20.623,20.623,0,0,1-6.3-.853,3.974,3.974,0,0,0-3.851,3.967.7.7,0,0,1-.011.128c-.015.089-1.516,9,4.669,11.379a.728.728,0,0,1-.262,1.407" transform="translate(-19.551 -34.181)" fill="#988165"></path><path id="Контур_888" data-name="Контур 888" d="M50.24,119.3c-1.484,0-1.682-2.207-2.012-5.863-.252-2.8-.673-7.474-2.009-7.474-1.238,0-1.545,4.372-1.728,6.984-.259,3.688-.445,6.353-2.177,6.353-3.266,0-5.726-11.034-5.977-17.042a.728.728,0,0,1,1.454-.061,44.042,44.042,0,0,0,1.874,10.632c1.133,3.634,2.2,4.91,2.6,5.009.455-.47.645-3.183.772-4.993.287-4.1.584-8.338,3.18-8.338,2.667,0,3.069,4.473,3.459,8.8a22.319,22.319,0,0,0,.645,4.42c.282-.321.94-1.407,1.9-5.038.816-3.092,1.614-7.092,2.288-10.6a.728.728,0,1,1,1.429.275c-2.493,12.978-3.824,16.934-5.7,16.934" transform="translate(-25.758 -71.953)" fill="#988165"></path><path id="Контур_889" data-name="Контур 889" d="M40.612,71.326H.728A.728.728,0,0,1,0,70.6V26.507a.728.728,0,0,1,.728-.728H21.856a.728.728,0,0,1,0,1.456H1.456V69.87H39.884v-20.9a.728.728,0,0,1,1.456,0V70.6a.728.728,0,0,1-.728.728" transform="translate(0 -18.274)" fill="#988165"></path></g></g></g></svg> 